<mxfile host="app.diagrams.net" modified="2023-09-11T09:28:58.123Z" agent="Mozilla/5.0 (Windows NT 10.0; Win64; x64) AppleWebKit/537.36 (KHTML, like Gecko) Chrome/116.0.0.0 Safari/537.36" etag="4uSqiW65d75XlM9Fv_k_" version="21.7.4" type="device">
  <diagram name="1 oldal" id="buPjTpMKFAXJCyazPLof">
    <mxGraphModel dx="1434" dy="790" grid="1" gridSize="10" guides="1" tooltips="1" connect="1" arrows="1" fold="1" page="1" pageScale="1" pageWidth="827" pageHeight="1169" math="0" shadow="0">
      <root>
        <mxCell id="0" />
        <mxCell id="1" parent="0" />
        <mxCell id="HjVw_L2ExybgunPa3fXr-1" value="" style="ellipse;whiteSpace=wrap;html=1;" vertex="1" parent="1">
          <mxGeometry x="10" y="105" width="190" height="40" as="geometry" />
        </mxCell>
        <mxCell id="HjVw_L2ExybgunPa3fXr-2" value="Születési datum" style="text;html=1;strokeColor=none;fillColor=none;align=center;verticalAlign=middle;whiteSpace=wrap;rounded=0;" vertex="1" parent="1">
          <mxGeometry x="75" y="110" width="60" height="30" as="geometry" />
        </mxCell>
        <mxCell id="HjVw_L2ExybgunPa3fXr-3" value="" style="ellipse;whiteSpace=wrap;html=1;" vertex="1" parent="1">
          <mxGeometry x="260" y="70" width="80" height="40" as="geometry" />
        </mxCell>
        <mxCell id="HjVw_L2ExybgunPa3fXr-4" value="" style="ellipse;whiteSpace=wrap;html=1;" vertex="1" parent="1">
          <mxGeometry x="240" y="120" width="190" height="40" as="geometry" />
        </mxCell>
        <mxCell id="HjVw_L2ExybgunPa3fXr-22" style="edgeStyle=orthogonalEdgeStyle;rounded=0;orthogonalLoop=1;jettySize=auto;html=1;exitX=0.5;exitY=0;exitDx=0;exitDy=0;entryX=-0.012;entryY=0.35;entryDx=0;entryDy=0;entryPerimeter=0;" edge="1" parent="1" source="HjVw_L2ExybgunPa3fXr-5" target="HjVw_L2ExybgunPa3fXr-3">
          <mxGeometry relative="1" as="geometry" />
        </mxCell>
        <mxCell id="HjVw_L2ExybgunPa3fXr-5" value="" style="rounded=0;whiteSpace=wrap;html=1;" vertex="1" parent="1">
          <mxGeometry x="147.5" y="190" width="95" height="40" as="geometry" />
        </mxCell>
        <mxCell id="HjVw_L2ExybgunPa3fXr-25" style="edgeStyle=orthogonalEdgeStyle;rounded=0;orthogonalLoop=1;jettySize=auto;html=1;exitX=0.5;exitY=0;exitDx=0;exitDy=0;entryX=0.5;entryY=1;entryDx=0;entryDy=0;" edge="1" parent="1" source="HjVw_L2ExybgunPa3fXr-6" target="HjVw_L2ExybgunPa3fXr-5">
          <mxGeometry relative="1" as="geometry" />
        </mxCell>
        <mxCell id="HjVw_L2ExybgunPa3fXr-6" value="" style="rhombus;whiteSpace=wrap;html=1;" vertex="1" parent="1">
          <mxGeometry x="145" y="250" width="100" height="80" as="geometry" />
        </mxCell>
        <mxCell id="HjVw_L2ExybgunPa3fXr-27" style="edgeStyle=orthogonalEdgeStyle;rounded=0;orthogonalLoop=1;jettySize=auto;html=1;exitX=0.5;exitY=0;exitDx=0;exitDy=0;entryX=0.5;entryY=1;entryDx=0;entryDy=0;" edge="1" parent="1" source="HjVw_L2ExybgunPa3fXr-8" target="HjVw_L2ExybgunPa3fXr-6">
          <mxGeometry relative="1" as="geometry" />
        </mxCell>
        <mxCell id="HjVw_L2ExybgunPa3fXr-30" style="edgeStyle=orthogonalEdgeStyle;rounded=0;orthogonalLoop=1;jettySize=auto;html=1;exitX=0;exitY=1;exitDx=0;exitDy=0;entryX=1;entryY=0;entryDx=0;entryDy=0;" edge="1" parent="1" source="HjVw_L2ExybgunPa3fXr-8" target="HjVw_L2ExybgunPa3fXr-10">
          <mxGeometry relative="1" as="geometry" />
        </mxCell>
        <mxCell id="HjVw_L2ExybgunPa3fXr-34" style="edgeStyle=orthogonalEdgeStyle;rounded=0;orthogonalLoop=1;jettySize=auto;html=1;exitX=0.5;exitY=1;exitDx=0;exitDy=0;entryX=0.675;entryY=0.1;entryDx=0;entryDy=0;entryPerimeter=0;" edge="1" parent="1" source="HjVw_L2ExybgunPa3fXr-8" target="HjVw_L2ExybgunPa3fXr-11">
          <mxGeometry relative="1" as="geometry" />
        </mxCell>
        <mxCell id="HjVw_L2ExybgunPa3fXr-36" style="edgeStyle=orthogonalEdgeStyle;rounded=0;orthogonalLoop=1;jettySize=auto;html=1;exitX=1;exitY=1;exitDx=0;exitDy=0;entryX=0.27;entryY=0.025;entryDx=0;entryDy=0;entryPerimeter=0;" edge="1" parent="1" source="HjVw_L2ExybgunPa3fXr-8" target="HjVw_L2ExybgunPa3fXr-12">
          <mxGeometry relative="1" as="geometry" />
        </mxCell>
        <mxCell id="HjVw_L2ExybgunPa3fXr-38" style="edgeStyle=orthogonalEdgeStyle;rounded=0;orthogonalLoop=1;jettySize=auto;html=1;exitX=1;exitY=0.5;exitDx=0;exitDy=0;" edge="1" parent="1" source="HjVw_L2ExybgunPa3fXr-8" target="HjVw_L2ExybgunPa3fXr-9">
          <mxGeometry relative="1" as="geometry" />
        </mxCell>
        <mxCell id="HjVw_L2ExybgunPa3fXr-8" value="" style="rounded=0;whiteSpace=wrap;html=1;" vertex="1" parent="1">
          <mxGeometry x="160" y="370" width="77.5" height="40" as="geometry" />
        </mxCell>
        <mxCell id="HjVw_L2ExybgunPa3fXr-9" value="" style="ellipse;whiteSpace=wrap;html=1;" vertex="1" parent="1">
          <mxGeometry x="290" y="390" width="80" height="40" as="geometry" />
        </mxCell>
        <mxCell id="HjVw_L2ExybgunPa3fXr-10" value="" style="ellipse;whiteSpace=wrap;html=1;" vertex="1" parent="1">
          <mxGeometry x="30" y="460" width="80" height="50" as="geometry" />
        </mxCell>
        <mxCell id="HjVw_L2ExybgunPa3fXr-11" value="" style="ellipse;whiteSpace=wrap;html=1;" vertex="1" parent="1">
          <mxGeometry x="145" y="490" width="80" height="40" as="geometry" />
        </mxCell>
        <mxCell id="HjVw_L2ExybgunPa3fXr-12" value="" style="ellipse;whiteSpace=wrap;html=1;" vertex="1" parent="1">
          <mxGeometry x="260" y="480" width="100" height="40" as="geometry" />
        </mxCell>
        <mxCell id="HjVw_L2ExybgunPa3fXr-13" value="" style="ellipse;whiteSpace=wrap;html=1;" vertex="1" parent="1">
          <mxGeometry x="570" y="230" width="190" height="40" as="geometry" />
        </mxCell>
        <mxCell id="HjVw_L2ExybgunPa3fXr-14" value="" style="ellipse;whiteSpace=wrap;html=1;" vertex="1" parent="1">
          <mxGeometry x="680" y="330" width="80" height="40" as="geometry" />
        </mxCell>
        <mxCell id="HjVw_L2ExybgunPa3fXr-15" value="" style="ellipse;whiteSpace=wrap;html=1;" vertex="1" parent="1">
          <mxGeometry x="580" y="390" width="100" height="40" as="geometry" />
        </mxCell>
        <mxCell id="HjVw_L2ExybgunPa3fXr-16" value="" style="rhombus;whiteSpace=wrap;html=1;" vertex="1" parent="1">
          <mxGeometry x="490" y="300" width="70" height="50" as="geometry" />
        </mxCell>
        <mxCell id="HjVw_L2ExybgunPa3fXr-17" value="" style="rounded=0;whiteSpace=wrap;html=1;" vertex="1" parent="1">
          <mxGeometry x="590" y="310" width="77.5" height="40" as="geometry" />
        </mxCell>
        <mxCell id="HjVw_L2ExybgunPa3fXr-18" value="" style="endArrow=none;html=1;rounded=0;entryX=1;entryY=1;entryDx=0;entryDy=0;" edge="1" parent="1" target="HjVw_L2ExybgunPa3fXr-2">
          <mxGeometry width="50" height="50" relative="1" as="geometry">
            <mxPoint x="150" y="190" as="sourcePoint" />
            <mxPoint x="200" y="140" as="targetPoint" />
          </mxGeometry>
        </mxCell>
        <mxCell id="HjVw_L2ExybgunPa3fXr-19" value="" style="endArrow=none;html=1;rounded=0;entryX=0.189;entryY=0.9;entryDx=0;entryDy=0;entryPerimeter=0;" edge="1" parent="1" target="HjVw_L2ExybgunPa3fXr-4">
          <mxGeometry width="50" height="50" relative="1" as="geometry">
            <mxPoint x="240" y="195" as="sourcePoint" />
            <mxPoint x="280" y="175" as="targetPoint" />
            <Array as="points">
              <mxPoint x="260" y="175" />
            </Array>
          </mxGeometry>
        </mxCell>
        <mxCell id="HjVw_L2ExybgunPa3fXr-20" value="" style="endArrow=none;html=1;rounded=0;" edge="1" parent="1">
          <mxGeometry width="50" height="50" relative="1" as="geometry">
            <mxPoint x="390" y="430" as="sourcePoint" />
            <mxPoint x="440" y="380" as="targetPoint" />
          </mxGeometry>
        </mxCell>
        <mxCell id="HjVw_L2ExybgunPa3fXr-21" value="" style="endArrow=none;html=1;rounded=0;" edge="1" parent="1">
          <mxGeometry width="50" height="50" relative="1" as="geometry">
            <mxPoint x="390" y="430" as="sourcePoint" />
            <mxPoint x="440" y="380" as="targetPoint" />
          </mxGeometry>
        </mxCell>
        <mxCell id="HjVw_L2ExybgunPa3fXr-23" value="" style="endArrow=none;html=1;rounded=0;" edge="1" parent="1">
          <mxGeometry width="50" height="50" relative="1" as="geometry">
            <mxPoint x="390" y="430" as="sourcePoint" />
            <mxPoint x="440" y="380" as="targetPoint" />
          </mxGeometry>
        </mxCell>
        <mxCell id="HjVw_L2ExybgunPa3fXr-24" value="" style="endArrow=none;html=1;rounded=0;" edge="1" parent="1">
          <mxGeometry width="50" height="50" relative="1" as="geometry">
            <mxPoint x="390" y="430" as="sourcePoint" />
            <mxPoint x="440" y="380" as="targetPoint" />
          </mxGeometry>
        </mxCell>
        <mxCell id="HjVw_L2ExybgunPa3fXr-26" value="" style="endArrow=none;html=1;rounded=0;" edge="1" parent="1">
          <mxGeometry width="50" height="50" relative="1" as="geometry">
            <mxPoint x="390" y="430" as="sourcePoint" />
            <mxPoint x="440" y="380" as="targetPoint" />
          </mxGeometry>
        </mxCell>
        <mxCell id="HjVw_L2ExybgunPa3fXr-28" value="" style="endArrow=none;html=1;rounded=0;" edge="1" parent="1">
          <mxGeometry width="50" height="50" relative="1" as="geometry">
            <mxPoint x="390" y="430" as="sourcePoint" />
            <mxPoint x="440" y="380" as="targetPoint" />
          </mxGeometry>
        </mxCell>
        <mxCell id="HjVw_L2ExybgunPa3fXr-29" value="" style="endArrow=none;html=1;rounded=0;" edge="1" parent="1">
          <mxGeometry width="50" height="50" relative="1" as="geometry">
            <mxPoint x="390" y="430" as="sourcePoint" />
            <mxPoint x="440" y="380" as="targetPoint" />
          </mxGeometry>
        </mxCell>
        <mxCell id="HjVw_L2ExybgunPa3fXr-31" value="" style="endArrow=none;html=1;rounded=0;" edge="1" parent="1">
          <mxGeometry width="50" height="50" relative="1" as="geometry">
            <mxPoint x="390" y="430" as="sourcePoint" />
            <mxPoint x="440" y="380" as="targetPoint" />
          </mxGeometry>
        </mxCell>
        <mxCell id="HjVw_L2ExybgunPa3fXr-32" value="" style="endArrow=none;html=1;rounded=0;" edge="1" parent="1">
          <mxGeometry width="50" height="50" relative="1" as="geometry">
            <mxPoint x="390" y="430" as="sourcePoint" />
            <mxPoint x="440" y="380" as="targetPoint" />
          </mxGeometry>
        </mxCell>
        <mxCell id="HjVw_L2ExybgunPa3fXr-33" value="" style="endArrow=none;html=1;rounded=0;" edge="1" parent="1">
          <mxGeometry width="50" height="50" relative="1" as="geometry">
            <mxPoint x="390" y="430" as="sourcePoint" />
            <mxPoint x="440" y="380" as="targetPoint" />
          </mxGeometry>
        </mxCell>
        <mxCell id="HjVw_L2ExybgunPa3fXr-35" value="" style="endArrow=none;html=1;rounded=0;" edge="1" parent="1">
          <mxGeometry width="50" height="50" relative="1" as="geometry">
            <mxPoint x="390" y="430" as="sourcePoint" />
            <mxPoint x="440" y="380" as="targetPoint" />
          </mxGeometry>
        </mxCell>
        <mxCell id="HjVw_L2ExybgunPa3fXr-37" value="" style="endArrow=none;html=1;rounded=0;" edge="1" parent="1">
          <mxGeometry width="50" height="50" relative="1" as="geometry">
            <mxPoint x="390" y="430" as="sourcePoint" />
            <mxPoint x="440" y="380" as="targetPoint" />
          </mxGeometry>
        </mxCell>
      </root>
    </mxGraphModel>
  </diagram>
</mxfile>
